<?xml version="1.0" standalone="no"?>
<!DOCTYPE svg PUBLIC "-//W3C//DTD SVG 20010904//EN"
 "http://www.w3.org/TR/2001/REC-SVG-20010904/DTD/svg10.dtd">
<svg version="1.0" xmlns="http://www.w3.org/2000/svg"
 width="140.000000pt" height="90.000000pt" viewBox="0 0 140.000000 90.000000"
 preserveAspectRatio="xMidYMid meet">
<g transform="translate(0.000000,90.000000) scale(0.100000,-0.100000)"
fill="#212529" stroke="none">
<path d="M637 882 c-23 -25 -22 -85 1 -105 25 -23 85 -22 105 1 23 25 22 85
-1 105 -25 23 -85 22 -105 -1z"/>
<path d="M675 718 c-2 -7 -9 -56 -15 -108 -28 -229 -79 -329 -154 -300 -34 12
-61 51 -92 130 -15 39 -33 70 -41 70 -15 0 -15 1 -13 -117 2 -102 -9 -133 -45
-133 -27 0 -60 38 -132 155 -56 89 -78 107 -70 54 7 -46 173 -453 186 -457 6
-2 37 5 68 16 101 35 200 45 375 39 128 -4 178 -10 233 -27 128 -40 119 -42
150 42 15 40 57 146 92 236 36 90 62 166 59 169 -13 13 -35 -10 -83 -88 -63
-102 -97 -139 -127 -139 -38 0 -49 43 -41 155 7 89 6 97 -10 93 -10 -2 -29
-31 -48 -77 -33 -79 -76 -131 -109 -131 -11 0 -35 15 -53 33 -47 47 -59 93
-91 355 -3 28 -10 42 -20 42 -8 0 -16 -6 -19 -12z"/>
<path d="M287 652 c-23 -25 -22 -85 1 -105 25 -23 85 -22 105 1 23 25 22 85
-1 105 -25 23 -85 22 -105 -1z"/>
<path d="M987 652 c-23 -25 -22 -85 1 -105 25 -23 85 -22 105 1 23 25 22 85
-1 105 -25 23 -85 22 -105 -1z"/>
<path d="M17 632 c-23 -25 -22 -85 1 -105 25 -23 85 -22 105 1 23 25 22 85 -1
105 -25 23 -85 22 -105 -1z"/>
<path d="M1277 632 c-23 -25 -22 -85 1 -105 25 -23 85 -22 105 1 23 25 22 85
-1 105 -25 23 -85 22 -105 -1z"/>
</g>
</svg>
